<?xml version="1.0" encoding="UTF-8" standalone="no"?> <svg width="512" height="512" viewBox="0 0 512 512" fill="none" xmlns="http://www.w3.org/2000/svg">
<path d="M429.733 341.015C427.789 325.516 421.759 310.812 412.261 298.41C402.763 286.008 390.139 276.354 375.682 270.438L296.981 238.294L307.501 231.281C316.276 225.445 323.47 217.528 328.443 208.237C333.415 198.945 336.012 188.568 336 178.03V96C336 95.9858 335.998 95.9722 335.998 95.958C345.933 88.5148 353.997 78.8598 359.552 67.7582C365.107 56.6566 367.999 44.4137 368 32V24C368 21.8783 367.157 19.8435 365.657 18.3432C364.157 16.8429 362.122 16 360 16H256C234.79 16.0239 214.456 24.4602 199.458 39.4579C184.46 54.4556 176.024 74.79 176 96V178.03C175.989 188.568 178.585 198.945 183.558 208.237C188.53 217.528 195.725 225.445 204.499 231.281L215.062 238.323L136.09 270.841C121.695 276.784 109.132 286.434 99.6794 298.81C90.2266 311.187 84.2216 325.846 82.2756 341.297L64.0618 487.008C63.9315 488.05 64.0078 489.108 64.2864 490.121C64.5649 491.134 65.0403 492.082 65.6853 492.912C66.3303 493.741 67.1324 494.435 68.0457 494.955C68.9589 495.474 69.9656 495.808 71.0081 495.939C72.0506 496.069 73.1085 495.992 74.1215 495.714C75.1345 495.435 76.0828 494.96 76.912 494.315C77.7413 493.67 78.4355 492.868 78.9548 491.955C79.4741 491.041 79.8085 490.035 79.9388 488.992L98.1526 343.282C99.7448 330.64 104.658 318.646 112.392 308.52C120.126 298.394 130.405 290.498 142.182 285.636L168 275.005V336C168 337.582 168.47 339.129 169.349 340.445C170.228 341.76 171.477 342.786 172.939 343.391C174.401 343.997 176.009 344.155 177.561 343.846C179.113 343.538 180.539 342.776 181.657 341.657L193.887 329.427L200 384.444V488C200 490.122 200.843 492.157 202.343 493.657C203.844 495.157 205.879 496 208 496H304C306.122 496 308.157 495.157 309.657 493.657C311.157 492.157 312 490.122 312 488V384.444L318.113 329.427L330.343 341.657C331.462 342.776 332.887 343.538 334.439 343.846C335.991 344.155 337.6 343.997 339.062 343.391C340.523 342.786 341.773 341.76 342.652 340.445C343.531 339.129 344 337.582 344 336V274.781L369.632 285.25C381.461 290.091 391.79 297.989 399.561 308.136C407.332 318.283 412.265 330.314 413.856 342.995L432.062 488.99C432.192 490.032 432.526 491.039 433.045 491.952C433.564 492.866 434.258 493.668 435.087 494.313C435.916 494.958 436.864 495.434 437.877 495.713C438.89 495.992 439.947 496.068 440.99 495.939C442.032 495.809 443.039 495.474 443.953 494.955C444.866 494.436 445.668 493.743 446.313 492.914C446.959 492.084 447.434 491.136 447.713 490.124C447.992 489.111 448.069 488.053 447.939 487.01L429.733 341.015ZM256 320C258.953 319.998 261.896 319.669 264.776 319.018L271.068 376H240.933L247.224 319.018C250.104 319.669 253.048 319.998 256 320V320ZM256 304C251.253 304 246.613 302.592 242.667 299.955C238.72 297.318 235.644 293.57 233.827 289.184C232.011 284.799 231.535 279.973 232.461 275.318C233.387 270.662 235.673 266.386 239.03 263.029C242.386 259.673 246.663 257.387 251.318 256.461C255.974 255.535 260.799 256.01 265.185 257.827C269.57 259.643 273.318 262.72 275.956 266.666C278.593 270.613 280 275.253 280 280C279.993 286.363 277.462 292.463 272.963 296.963C268.463 301.462 262.363 303.993 256 304V304ZM192 96C192.019 79.032 198.768 62.7645 210.767 50.7663C222.765 38.7681 239.032 32.0192 256 32H352C351.981 48.968 345.232 65.2355 333.234 77.2337C321.236 89.2319 304.968 95.9808 288 96H253.823C243.314 95.9713 232.902 98.0274 223.192 102.049C213.482 106.072 204.666 111.98 197.255 119.432L192 124.687V96ZM192 178.03V147.314L208.57 130.745C214.498 124.783 221.551 120.057 229.319 116.839C237.087 113.622 245.416 111.977 253.823 112H288C299.016 112.007 309.913 109.726 320 105.3V178.03C320.009 185.933 318.062 193.716 314.332 200.685C310.603 207.654 305.207 213.591 298.626 217.968L275.563 233.344L275.54 233.359L273.751 234.552C268.499 238.067 262.321 239.943 256 239.943C249.68 239.943 243.502 238.067 238.249 234.552L236.45 233.353L236.412 233.327L213.374 217.968C206.793 213.591 201.398 207.654 197.668 200.685C193.939 193.716 191.992 185.933 192 178.03V178.03ZM184 268.416L230.363 249.326C225.286 253.55 221.339 258.971 218.876 265.099C216.413 271.227 215.511 277.871 216.252 284.435L184 316.687V268.416ZM222.108 301.206C224.701 305.337 228.023 308.963 231.911 311.908L224.834 376H215.161L208.376 314.938L222.108 301.206ZM296 480H216V392H296V480ZM296.84 376H287.166L280.089 311.908C283.978 308.963 287.299 305.337 289.893 301.206L303.625 314.938L296.84 376ZM328 316.687L295.749 284.435C296.49 277.864 295.586 271.212 293.116 265.078C290.647 258.944 286.69 253.52 281.603 249.296L328 268.246V316.687Z" fill="black"/>
<path d="M161.057 360.07C158.954 359.79 156.826 360.357 155.141 361.646C153.456 362.934 152.351 364.84 152.07 366.943L136.07 486.943C135.931 487.984 135.999 489.042 136.269 490.058C136.539 491.073 137.007 492.025 137.645 492.859C138.283 493.694 139.08 494.394 139.989 494.921C140.898 495.448 141.901 495.791 142.943 495.929C143.984 496.068 145.043 496.001 146.058 495.73C147.073 495.46 148.025 494.992 148.859 494.354C149.694 493.716 150.395 492.92 150.921 492.011C151.448 491.102 151.791 490.098 151.93 489.057L167.93 369.057C168.21 366.954 167.643 364.826 166.355 363.14C165.066 361.455 163.16 360.35 161.057 360.07V360.07Z" fill="black"/>
<path d="M359.93 366.943C359.791 365.901 359.448 364.898 358.921 363.989C358.395 363.08 357.694 362.283 356.859 361.645C356.025 361.007 355.073 360.539 354.058 360.269C353.043 359.999 351.984 359.931 350.943 360.07C349.901 360.209 348.898 360.552 347.989 361.078C347.08 361.605 346.283 362.306 345.645 363.14C345.007 363.975 344.539 364.927 344.269 365.942C343.999 366.957 343.931 368.016 344.07 369.057L360.07 489.057C360.326 490.977 361.27 492.739 362.726 494.016C364.183 495.293 366.053 495.998 367.99 496.001C368.347 496.001 368.704 495.977 369.057 495.93C371.16 495.649 373.066 494.545 374.355 492.859C375.643 491.174 376.21 489.046 375.93 486.943L359.93 366.943Z" fill="black"/>
<path d="M256 432C258.122 432 260.157 431.157 261.657 429.657C263.157 428.157 264 426.122 264 424V416C264 413.878 263.157 411.843 261.657 410.343C260.157 408.843 258.122 408 256 408C253.878 408 251.843 408.843 250.343 410.343C248.843 411.843 248 413.878 248 416V424C248 426.122 248.843 428.157 250.343 429.657C251.843 431.157 253.878 432 256 432V432Z" fill="black"/>
<path d="M272 448H240C237.878 448 235.843 448.843 234.343 450.343C232.843 451.843 232 453.878 232 456C232 458.122 232.843 460.157 234.343 461.657C235.843 463.157 237.878 464 240 464H272C274.122 464 276.157 463.157 277.657 461.657C279.157 460.157 280 458.122 280 456C280 453.878 279.157 451.843 277.657 450.343C276.157 448.843 274.122 448 272 448Z" fill="black"/>
<path d="M472 80H464V64C464 61.8783 463.157 59.8434 461.657 58.3431C460.157 56.8429 458.122 56 456 56C453.878 56 451.843 56.8429 450.343 58.3431C448.843 59.8434 448 61.8783 448 64V80H400V64C400 61.8783 399.157 59.8434 397.657 58.3431C396.157 56.8429 394.122 56 392 56C389.878 56 387.843 56.8429 386.343 58.3431C384.843 59.8434 384 61.8783 384 64V80H376C369.637 80.0072 363.537 82.5381 359.037 87.0374C354.538 91.5367 352.007 97.637 352 104V216C352.007 222.363 354.538 228.463 359.037 232.963C363.537 237.462 369.637 239.993 376 240H472C478.363 239.993 484.463 237.462 488.963 232.963C493.462 228.463 495.993 222.363 496 216V104C495.993 97.637 493.462 91.5367 488.963 87.0374C484.463 82.5381 478.363 80.0072 472 80V80ZM376 96H384C384 98.1217 384.843 100.157 386.343 101.657C387.843 103.157 389.878 104 392 104C394.122 104 396.157 103.157 397.657 101.657C399.157 100.157 400 98.1217 400 96H448C448 98.1217 448.843 100.157 450.343 101.657C451.843 103.157 453.878 104 456 104C458.122 104 460.157 103.157 461.657 101.657C463.157 100.157 464 98.1217 464 96H472C474.121 96.0024 476.154 96.8461 477.654 98.3458C479.154 99.8456 479.998 101.879 480 104V120H368V104C368.002 101.879 368.846 99.8456 370.346 98.3458C371.846 96.8461 373.879 96.0024 376 96V96ZM472 224H376C373.879 223.998 371.846 223.154 370.346 221.654C368.846 220.154 368.002 218.121 368 216V136H480V216C479.998 218.121 479.154 220.154 477.654 221.654C476.154 223.154 474.121 223.998 472 224V224Z" fill="black"/>
<path d="M408 152H392C389.878 152 387.843 152.843 386.343 154.343C384.843 155.843 384 157.878 384 160C384 162.122 384.843 164.157 386.343 165.657C387.843 167.157 389.878 168 392 168H408C410.122 168 412.157 167.157 413.657 165.657C415.157 164.157 416 162.122 416 160C416 157.878 415.157 155.843 413.657 154.343C412.157 152.843 410.122 152 408 152Z" fill="black"/>
<path d="M408 184H392C389.878 184 387.843 184.843 386.343 186.343C384.843 187.843 384 189.878 384 192C384 194.122 384.843 196.157 386.343 197.657C387.843 199.157 389.878 200 392 200H408C410.122 200 412.157 199.157 413.657 197.657C415.157 196.157 416 194.122 416 192C416 189.878 415.157 187.843 413.657 186.343C412.157 184.843 410.122 184 408 184Z" fill="black"/>
<path d="M456 152H440C437.878 152 435.843 152.843 434.343 154.343C432.843 155.843 432 157.878 432 160C432 162.122 432.843 164.157 434.343 165.657C435.843 167.157 437.878 168 440 168H456C458.122 168 460.157 167.157 461.657 165.657C463.157 164.157 464 162.122 464 160C464 157.878 463.157 155.843 461.657 154.343C460.157 152.843 458.122 152 456 152Z" fill="black"/>
<path d="M456 184H440C437.878 184 435.843 184.843 434.343 186.343C432.843 187.843 432 189.878 432 192C432 194.122 432.843 196.157 434.343 197.657C435.843 199.157 437.878 200 440 200H456C458.122 200 460.157 199.157 461.657 197.657C463.157 196.157 464 194.122 464 192C464 189.878 463.157 187.843 461.657 186.343C460.157 184.843 458.122 184 456 184Z" fill="black"/>
<path d="M120 160H56C53.8783 160 51.8434 160.843 50.3431 162.343C48.8429 163.843 48 165.878 48 168C48 170.122 48.8429 172.157 50.3431 173.657C51.8434 175.157 53.8783 176 56 176H120C122.122 176 124.157 175.157 125.657 173.657C127.157 172.157 128 170.122 128 168C128 165.878 127.157 163.843 125.657 162.343C124.157 160.843 122.122 160 120 160Z" fill="black"/>
<path d="M120 192H56C53.8783 192 51.8434 192.843 50.3431 194.343C48.8429 195.843 48 197.878 48 200C48 202.122 48.8429 204.157 50.3431 205.657C51.8434 207.157 53.8783 208 56 208H120C122.122 208 124.157 207.157 125.657 205.657C127.157 204.157 128 202.122 128 200C128 197.878 127.157 195.843 125.657 194.343C124.157 192.843 122.122 192 120 192Z" fill="black"/>
<path d="M160 232V88.0001C160 85.8784 159.157 83.8435 157.657 82.3433C156.157 80.843 154.122 80.0001 152 80.0001H124.65C127.312 73.9126 128.415 67.2579 127.86 60.6371C127.306 54.0163 125.111 47.6378 121.474 42.0779C117.837 36.5179 112.872 31.9515 107.027 28.791C101.183 25.6305 94.644 23.9756 88 23.9756C81.356 23.9756 74.8167 25.6305 68.9725 28.791C63.1284 31.9515 58.1635 36.5179 54.5263 42.0779C50.8891 47.6378 48.6941 54.0163 48.1396 60.6371C47.585 67.2579 48.6884 73.9126 51.3501 80.0001H24C21.8783 80.0001 19.8435 80.843 18.3432 82.3433C16.8429 83.8435 16 85.8784 16 88.0001V232C16 234.122 16.8429 236.157 18.3432 237.657C19.8435 239.157 21.8783 240 24 240H152C154.122 240 156.157 239.157 157.657 237.657C159.157 236.157 160 234.122 160 232ZM72 100.65C77.0448 102.859 82.4926 104 88 104C93.5074 104 98.9552 102.859 104 100.65V121.052L92.4375 113.344C91.1235 112.467 89.5794 112 88 112C86.4206 112 84.8765 112.467 83.5625 113.344L72 121.052V100.65ZM88 40.0001C92.7468 40.0001 97.3869 41.4077 101.334 44.0448C105.28 46.682 108.357 50.4303 110.173 54.8157C111.99 59.2011 112.465 64.0267 111.539 68.6823C110.613 73.3378 108.327 77.6142 104.971 80.9707C101.614 84.3271 97.3377 86.6129 92.6822 87.5389C88.0266 88.465 83.201 87.9897 78.8156 86.1732C74.4302 84.3567 70.6819 81.2806 68.0447 77.3338C65.4076 73.387 64 68.7468 64 64.0001C64.0073 57.6371 66.5382 51.5369 71.0375 47.0376C75.5368 42.5383 81.637 40.0074 88 40.0001V40.0001ZM144 224H32V96.0001H56V136C56.0001 137.448 56.3932 138.869 57.1373 140.111C57.8814 141.353 58.9486 142.37 60.2253 143.053C61.5019 143.736 62.94 144.06 64.3863 143.99C65.8325 143.921 67.2327 143.459 68.4375 142.656L88 129.615L107.562 142.656C108.767 143.459 110.167 143.921 111.614 143.99C113.06 144.06 114.498 143.736 115.775 143.053C117.051 142.37 118.119 141.353 118.863 140.111C119.607 138.869 120 137.448 120 136V96.0001H144V224Z" fill="black"/>
</svg>
