<?xml version="1.0" encoding="UTF-8"?>
<!DOCTYPE svg PUBLIC "-//W3C//DTD SVG 1.1//EN" "http://www.w3.org/Graphics/SVG/1.1/DTD/svg11.dtd">
<!-- Creator: CorelDRAW -->
<svg xmlns="http://www.w3.org/2000/svg" xml:space="preserve" width="512px" height="512px" version="1.1" style="shape-rendering:geometricPrecision; text-rendering:geometricPrecision; image-rendering:optimizeQuality; fill-rule:evenodd; clip-rule:evenodd"
viewBox="0 0 512 512"
 xmlns:xlink="http://www.w3.org/1999/xlink">
 <defs>
  <style type="text/css">
   <![CDATA[
    .fil0 {fill:black}
   ]]>
  </style>
 </defs>
 <g id="Layer_x0020_1">
  <metadata id="CorelCorpID_0Corel-Layer"/>
  <g id="_571553040">
   <g>
    <g>
     <path class="fil0" d="M57 354l-31 0c-15,0 -26,-11 -26,-26l0 -147c0,-4 3,-7 7,-7 4,0 7,3 7,7l0 147c0,7 5,12 12,12l31 0c4,0 7,3 7,7 0,4 -3,7 -7,7z"/>
    </g>
    <g>
     <path class="fil0" d="M33 503c-4,0 -7,-3 -7,-7l0 -149c0,-4 3,-7 7,-7 4,0 7,3 7,7l0 149c0,4 -3,7 -7,7z"/>
    </g>
    <g>
     <path class="fil0" d="M486 354l-31 0c-4,0 -7,-3 -7,-7 0,-4 3,-7 7,-7l31 0c7,0 12,-5 12,-12l0 -147c0,-4 3,-7 7,-7 4,0 7,3 7,7l0 147c0,15 -11,26 -26,26z"/>
    </g>
    <g>
     <path class="fil0" d="M326 310l-139 0c-4,0 -7,-3 -7,-7 0,-4 3,-7 7,-7l139 0c4,0 7,3 7,7 0,4 -3,7 -7,7z"/>
    </g>
    <g>
     <path class="fil0" d="M479 503c-4,0 -7,-3 -7,-7l0 -149c0,-4 3,-7 7,-7 4,0 7,3 7,7l0 149c0,4 -3,7 -7,7z"/>
    </g>
    <g>
     <path class="fil0" d="M77 202c-24,0 -44,-20 -44,-45 0,-24 20,-44 44,-44 25,0 45,20 45,44 0,25 -20,45 -45,45zm0 -75c-16,0 -30,14 -30,30 0,17 14,31 30,31 17,0 31,-14 31,-31 0,-16 -14,-30 -31,-30z"/>
    </g>
    <g>
     <path class="fil0" d="M93 310c-4,0 -7,-3 -7,-7l0 -84c0,-10 -8,-18 -18,-18 -10,0 -18,8 -18,18l0 84c0,4 -3,7 -7,7 -4,0 -7,-3 -7,-7l0 -84c0,-18 14,-32 32,-32 18,0 32,14 32,32l0 84c0,4 -3,7 -7,7z"/>
    </g>
    <g>
     <path class="fil0" d="M186 310l-22 0c-4,0 -7,-3 -7,-7 0,-4 3,-7 7,-7l22 0c8,0 15,-7 15,-15 0,-8 -7,-15 -15,-15l-86 0 0 37c0,4 -3,7 -7,7 -4,0 -7,-3 -7,-7l0 -44c0,-4 3,-7 7,-7l93 0c16,0 29,13 29,29 0,16 -13,29 -29,29z"/>
    </g>
    <g>
     <path class="fil0" d="M163 503c-18,0 -33,-15 -33,-34l0 -115 -72 0c-12,0 -22,-10 -22,-22l0 -29c0,-4 3,-7 7,-7l122 0c17,0 31,14 31,32l0 141c0,19 -15,34 -33,34zm-113 -193l0 22c0,4 3,8 8,8l79 0c4,0 7,3 7,7l0 122c0,11 9,20 19,20 11,0 19,-9 19,-20l0 -141c0,-10 -8,-18 -17,-18l-115 0z"/>
    </g>
    <g>
     <path class="fil0" d="M469 310c-4,0 -7,-3 -7,-7l0 -84c0,-10 -8,-18 -18,-18 -10,0 -18,8 -18,18l0 84c0,4 -3,7 -7,7 -4,0 -7,-3 -7,-7l0 -84c0,-18 14,-32 32,-32 18,0 32,14 32,32l0 84c0,4 -3,7 -7,7z"/>
    </g>
    <g>
     <path class="fil0" d="M419 310c-4,0 -7,-3 -7,-7l0 -37 -86 0c-8,0 -15,7 -15,15 0,8 7,15 15,15l24 0c4,0 7,3 7,7 0,4 -3,7 -7,7l-24 0c-16,0 -29,-13 -29,-29 0,-16 13,-29 29,-29l93 0c4,0 7,3 7,7l0 44c0,4 -3,7 -7,7z"/>
    </g>
    <g>
     <path class="fil0" d="M349 503c-19,0 -33,-15 -33,-34l0 -141c0,-18 14,-32 31,-32l122 0c4,0 7,3 7,7l0 29c0,12 -10,22 -22,22l-72 0 0 115c0,19 -15,34 -33,34zm-2 -193c-9,0 -17,8 -17,18l0 141c0,11 8,20 19,20 10,0 19,-9 19,-20l0 -122c0,-4 3,-7 7,-7l79 0c5,0 8,-4 8,-8l0 -22 -115 0z"/>
    </g>
    <g>
     <path class="fil0" d="M427 203c-25,0 -45,-19 -45,-44 0,-25 20,-45 45,-45 25,0 44,20 44,45 0,12 -5,23 -13,31 -8,9 -19,13 -31,13zm0 -75c-17,0 -31,14 -31,31 0,17 14,30 31,30 17,0 30,-13 30,-30 0,-17 -13,-31 -30,-31z"/>
    </g>
    <g>
     <path class="fil0" d="M495 503l-481 0c-4,0 -7,-3 -7,-7 0,-4 3,-7 7,-7l481 0c4,0 7,3 7,7 0,4 -3,7 -7,7z"/>
    </g>
    <g>
     <g>
      <path class="fil0" d="M187 151c-2,0 -4,-1 -5,-2 -2,-3 -3,-6 -1,-9l32 -49c-6,-9 -10,-19 -10,-29 0,-29 29,-53 65,-53 17,0 32,5 44,15 13,10 20,24 20,38 0,15 -7,28 -20,38 -12,10 -27,15 -44,15 -5,0 -11,0 -16,-1l-62 36c-1,1 -2,1 -3,1zm81 -128c-28,0 -51,18 -51,39 0,11 6,19 10,24 2,3 3,6 1,9l-19 28 39 -22c1,-1 3,-1 5,-1 4,1 9,1 15,1 28,0 50,-18 50,-39 0,-21 -23,-39 -50,-39z"/>
     </g>
     <g>
      <g>
       <path class="fil0" d="M245 69l-9 0c-4,0 -7,-3 -7,-7 0,-4 3,-7 7,-7l9 0c4,0 7,3 7,7 0,4 -3,7 -7,7z"/>
      </g>
      <g>
       <path class="fil0" d="M272 69l-9 0c-4,0 -7,-3 -7,-7 0,-4 3,-7 7,-7l9 0c4,0 7,3 7,7 0,4 -3,7 -7,7z"/>
      </g>
      <g>
       <path class="fil0" d="M300 69l-10 0c-4,0 -7,-3 -7,-7 0,-4 3,-7 7,-7l10 0c4,0 7,3 7,7 0,4 -3,7 -7,7z"/>
      </g>
     </g>
    </g>
   </g>
  </g>
 </g>
</svg>
